<svg version="1.1" xmlns="http://www.w3.org/2000/svg" xmlns:xlink="http://www.w3.org/1999/xlink">
    <symbol id="behance" viewBox="0 0 27 17">
      <path fill-rule="evenodd" clip-rule="evenodd" d="M7.60747 9.11623H3.43399V13.5201H7.54226C8.95441 13.5201 10.0732 13.0706 10.0732 11.4058C10.0732 9.77329 9.13068 9.11623 7.60747 9.11623ZM7.07139 2.70637H3.43399V6.45286H7.34467C8.58362 6.45286 9.51482 5.89442 9.51482 4.54747C9.51482 3.01305 8.34196 2.70637 7.07139 2.70637ZM13.7321 11.4712C13.7321 14.7262 10.9382 16.1171 8.02411 16.1171H0.179688V0H7.7949C10.8721 0 12.9649 1.08524 12.9649 4.07573C12.9649 5.64283 12.1661 6.73804 10.7641 7.41675C12.7347 7.97608 13.7321 9.478 13.7321 11.4712ZM17.5671 1.08524H24.0523V3.24332H17.5671V1.08524ZM20.47 6.60671C18.432 6.60671 17.84 7.74672 17.7967 8.63332H23.0339C22.7382 7.0234 22.0375 6.60671 20.47 6.60671ZM17.7967 10.7271C17.8841 12.7426 18.8816 14.0354 20.6679 14.0354C21.96 14.0354 23.1437 12.9828 23.3526 12.2607H26.1788C25.2804 15.0005 23.2087 16.4351 20.5578 16.4351C16.8664 16.4351 14.5424 13.9252 14.5424 10.3319C14.5424 6.8583 17.0071 4.20702 20.5578 4.20702C24.547 4.20702 26.4744 7.15487 26.2442 10.7271H17.7967Z" />
    </symbol>
    <symbol id="dribbble" viewBox="0 0 22 21">
      <path d="M16.0561 17.7353C15.6967 15.627 15.1113 13.6237 14.4024 11.76C15.933 11.568 17.7017 11.6107 19.7491 11.988C19.3374 14.367 17.9724 16.4143 16.0561 17.7353ZM5.78251 17.4643C7.26236 15.2333 9.32789 13.0283 12.678 12.101C13.4657 14.1126 14.1037 16.301 14.4467 18.6113C13.4147 19.0313 12.2843 19.2674 11.103 19.2674C9.09987 19.2674 7.25422 18.5933 5.78251 17.4643ZM2.33551 10.5V10.2195H2.38801C5.51183 10.2195 8.61922 10.0095 11.4 9.19567C11.602 9.61564 11.8134 10.0447 12.0037 10.491C8.34685 11.568 6.06303 13.9733 4.50604 16.2653C3.14935 14.7263 2.33551 12.705 2.33551 10.5ZM7.33133 2.58066C8.22383 3.77097 9.41487 5.50348 10.578 7.62066C8.11051 8.29499 5.35433 8.47868 2.57185 8.48697C3.18539 5.88 4.9704 3.71847 7.33133 2.58066ZM16.7828 3.82347C15.5491 5.32866 14.0004 6.36065 12.24 7.06117C11.1212 4.97848 9.95631 3.24597 9.03923 1.97696C9.70368 1.81946 10.3944 1.73248 11.103 1.73248C13.2737 1.73248 15.2507 2.51998 16.7828 3.82347ZM17.9904 5.08348C19.1191 6.51815 19.8098 8.30316 19.8707 10.2547C17.5083 9.84369 15.4787 9.82564 13.728 10.1062C13.5017 9.5985 13.2737 9.09881 13.0374 8.61828C14.9174 7.84868 16.6074 6.72001 17.9904 5.08348ZM11.103 0C5.30183 0 0.603027 4.69866 0.603027 10.5C0.603027 16.301 5.30183 21 11.103 21C16.9044 21 21.603 16.301 21.603 10.5C21.603 4.69866 16.9044 0 11.103 0Z" />
    </symbol>
    <symbol id="facebook" viewBox="0 0 12 21">
      <path d="M10.9261 0.0043694L8.2029 0C5.14344 0 3.16629 2.02849 3.16629 5.16813V7.55098H0.428202C0.191598 7.55098 0 7.7428 0 7.9794V11.4319C0 11.6685 0.191817 11.8601 0.428202 11.8601H3.16629V20.5718C3.16629 20.8084 3.35788 21 3.59449 21H7.16691C7.40351 21 7.59511 20.8082 7.59511 20.5718V11.8601H10.7966C11.0332 11.8601 11.2248 11.6685 11.2248 11.4319L11.2261 7.9794C11.2261 7.8658 11.1809 7.757 11.1007 7.6766C11.0205 7.5962 10.9113 7.55098 10.7977 7.55098H7.59511V5.53101C7.59511 4.56013 7.82647 4.06726 9.0912 4.06726L10.9257 4.0666C11.1621 4.0666 11.3537 3.87479 11.3537 3.6384V0.432571C11.3537 0.196405 11.1623 0.00480634 10.9261 0.0043694Z" />
    </symbol>
    <symbol id="instagram" viewBox="0 0 22 21">
      <path fill-rule="evenodd" clip-rule="evenodd" d="M19.3341 8.88365H17.5062C17.6393 9.40077 17.7182 9.94096 17.7182 10.4996C17.7182 14.0688 14.8251 16.9614 11.2567 16.9614C7.6884 16.9614 4.79546 14.0688 4.79546 10.4996C4.79546 9.94096 4.87456 9.40077 5.00775 8.88365H3.17941V17.769C3.17941 18.2145 3.5412 18.5761 3.98795 18.5761H18.5256C18.9725 18.5761 19.3341 18.2145 19.3341 17.769V8.88365ZM19.3341 3.23023C19.3341 2.78436 18.9725 2.42257 18.5256 2.42257H16.1032C15.6571 2.42257 15.2955 2.78436 15.2955 3.23023V5.65368C15.2955 6.09959 15.6571 6.46135 16.1032 6.46135H18.5256C18.9725 6.46135 19.3341 6.09959 19.3341 5.65368V3.23023ZM11.2567 6.46135C9.02622 6.46135 7.21818 8.26912 7.21818 10.4996C7.21818 12.7299 9.02622 14.5387 11.2567 14.5387C13.4873 14.5387 15.2955 12.7299 15.2955 10.4996C15.2955 8.26912 13.4873 6.46135 11.2567 6.46135ZM19.3341 21H3.17941C1.84159 21 0.756836 19.9148 0.756836 18.5761V2.42257C0.756836 1.08461 1.84159 0 3.17941 0H19.3341C20.6725 0 21.7568 1.08461 21.7568 2.42257V18.5761C21.7568 19.9148 20.6725 21 19.3341 21Z" />
    </symbol>
    <symbol id="linkedin" viewBox="0 0 22 21">
      <path d="M0.345952 6.97288H4.70994V21H0.345952V6.97288ZM2.52918 0C3.92373 0 5.05592 1.1326 5.05592 2.52803C5.05592 3.92376 3.92373 5.05636 2.52918 5.05636C1.12902 5.05636 0 3.92376 0 2.52803C0 1.1326 1.12902 0 2.52918 0Z" />
      <path d="M7.44531 6.97312H11.6242V8.89079H11.6841C12.2653 7.78798 13.6879 6.625 15.8089 6.625C20.2229 6.625 21.0386 9.52951 21.0386 13.3072V21.0002H16.6796V14.1789C16.6796 12.5523 16.6515 10.4596 14.4142 10.4596C12.1458 10.4596 11.7996 12.2324 11.7996 14.0625V21.0002H7.44531V6.97312Z" />
    </symbol>
    <symbol id="twitter" viewBox="0 0 23 18">
      <path d="M22.5984 2.13073C21.7836 2.49226 20.9079 2.73637 19.9885 2.84622C20.9266 2.28371 21.6472 1.39323 21.9864 0.332239C21.1086 0.852784 20.136 1.23119 19.101 1.43488C18.2721 0.551631 17.091 0 15.784 0C13.2743 0 11.2397 2.03447 11.2397 4.54391C11.2397 4.90028 11.28 5.24701 11.3574 5.57956C7.58071 5.39005 4.23236 3.581 1.9912 0.831648C1.59997 1.50277 1.37592 2.28343 1.37592 3.11629C1.37592 4.69266 2.17815 6.08348 3.39741 6.89854C2.6525 6.87499 1.9518 6.6704 1.33924 6.33004C1.33881 6.34904 1.33881 6.36804 1.33881 6.38735C1.33881 8.589 2.90523 10.4255 4.98404 10.8431C4.60264 10.947 4.20112 11.0025 3.78681 11.0025C3.49397 11.0025 3.20926 10.9738 2.93177 10.921C3.5101 12.7261 5.18836 14.04 7.17678 14.0768C5.62151 15.2956 3.66219 16.022 1.53314 16.022C1.16635 16.022 0.804664 16.0005 0.449219 15.9586C2.4603 17.248 4.8487 18 7.41503 18C15.7735 18 20.3442 11.0758 20.3442 5.07079C20.3442 4.87374 20.3397 4.67789 20.331 4.48294C21.2187 3.84232 21.9894 3.04207 22.5984 2.13073Z" />
    </symbol>
</svg>
